/* XPM */
static char * C:\Users\ondrejd\workspace\markdowneditor (bitbucket)\build\icons\markdowneditor_xpm[] = {
"32 32 227 2",
"  	c None",
". 	c #000000",
"+ 	c #0F0200",
"@ 	c #490800",
"# 	c #4B0800",
"$ 	c #2F0500",
"% 	c #050100",
"& 	c #070100",
"* 	c #110200",
"= 	c #8B0F00",
"- 	c #F31900",
"; 	c #FF1C00",
"> 	c #E81A00",
", 	c #E81900",
"' 	c #D41600",
") 	c #350500",
"! 	c #340500",
"~ 	c #690B00",
"{ 	c #710C00",
"] 	c #7B0D00",
"^ 	c #420700",
"/ 	c #010000",
"( 	c #440700",
"_ 	c #D91800",
": 	c #FF1E00",
"< 	c #B71300",
"[ 	c #4E0800",
"} 	c #E41800",
"| 	c #F51900",
"1 	c #991000",
"2 	c #940F00",
"3 	c #590900",
"4 	c #340400",
"5 	c #180000",
"6 	c #1B0300",
"7 	c #340600",
"8 	c #E61900",
"9 	c #FF1D00",
"0 	c #C51500",
"a 	c #090100",
"b 	c #C81600",
"c 	c #FE1C00",
"d 	c #BE1300",
"e 	c #6E0C00",
"f 	c #080100",
"g 	c #3D0500",
"h 	c #821307",
"i 	c #110A0A",
"j 	c #250400",
"k 	c #7A0D00",
"l 	c #D91700",
"m 	c #B31200",
"n 	c #480700",
"o 	c #FC1B00",
"p 	c #F91B00",
"q 	c #820E00",
"r 	c #BD1400",
"s 	c #B11400",
"t 	c #8D0C00",
"u 	c #7B180D",
"v 	c #162F32",
"w 	c #0B1719",
"x 	c #420400",
"y 	c #070000",
"z 	c #CF1600",
"A 	c #FF1B00",
"B 	c #E61700",
"C 	c #E11800",
"D 	c #420600",
"E 	c #ED1A00",
"F 	c #EA1900",
"G 	c #B21000",
"H 	c #5A0B05",
"I 	c #470F08",
"J 	c #7D0C00",
"K 	c #C31400",
"L 	c #4A0700",
"M 	c #630A00",
"N 	c #FF1A00",
"O 	c #CC1500",
"P 	c #5C0900",
"Q 	c #370600",
"R 	c #1D0300",
"S 	c #BF1300",
"T 	c #B21200",
"U 	c #DC1700",
"V 	c #CE1400",
"W 	c #DC1500",
"X 	c #F61A00",
"Y 	c #C41500",
"Z 	c #6C0B00",
"` 	c #1C0200",
" .	c #7E0D00",
"..	c #F11900",
"+.	c #C51400",
"@.	c #EC1900",
"#.	c #EA1800",
"$.	c #FA1A00",
"%.	c #F31A00",
"&.	c #EF1900",
"*.	c #5A0900",
"=.	c #2D0400",
"-.	c #D01600",
";.	c #9C1100",
">.	c #120200",
",.	c #760D00",
"'.	c #A01000",
").	c #AE1200",
"!.	c #840E00",
"~.	c #9E1000",
"{.	c #D91600",
"].	c #0E0100",
"^.	c #8F0F00",
"/.	c #FD1A00",
"(.	c #930F00",
"_.	c #4D0800",
":.	c #3F0600",
"<.	c #100200",
"[.	c #3F0500",
"}.	c #C11100",
"|.	c #F21900",
"1.	c #2C0400",
"2.	c #0A0100",
"3.	c #B51300",
"4.	c #A91200",
"5.	c #921000",
"6.	c #000607",
"7.	c #0A0F12",
"8.	c #660900",
"9.	c #D21400",
"0.	c #D31600",
"a.	c #540800",
"b.	c #400700",
"c.	c #FA1B00",
"d.	c #740C00",
"e.	c #270400",
"f.	c #640A00",
"g.	c #DB1700",
"h.	c #F71A00",
"i.	c #4C0700",
"j.	c #030000",
"k.	c #5E0900",
"l.	c #0B0100",
"m.	c #00080A",
"n.	c #091415",
"o.	c #001114",
"p.	c #151212",
"q.	c #470903",
"r.	c #7E0B00",
"s.	c #A80E00",
"t.	c #570900",
"u.	c #D11600",
"v.	c #F01A00",
"w.	c #C41400",
"x.	c #6F0C00",
"y.	c #A51100",
"z.	c #DF1700",
"A.	c #7A0C00",
"B.	c #250200",
"C.	c #090707",
"D.	c #0A1C1E",
"E.	c #001215",
"F.	c #141113",
"G.	c #E41700",
"H.	c #E01800",
"I.	c #D21600",
"J.	c #500900",
"K.	c #360600",
"L.	c #C91600",
"M.	c #EE1A00",
"N.	c #BD1500",
"O.	c #800E00",
"P.	c #D71600",
"Q.	c #D11400",
"R.	c #810D00",
"S.	c #460801",
"T.	c #0D0D0C",
"U.	c #0C0E0E",
"V.	c #0C1112",
"W.	c #0F0100",
"X.	c #E11700",
"Y.	c #F51B00",
"Z.	c #3A0600",
"`.	c #110100",
" +	c #3B0600",
".+	c #200300",
"++	c #600A00",
"@+	c #AC1200",
"#+	c #8A0E00",
"$+	c #060000",
"%+	c #6D0B00",
"&+	c #FC1A00",
"*+	c #370500",
"=+	c #210400",
"-+	c #700C00",
";+	c #FB1B00",
">+	c #5B0900",
",+	c #160200",
"'+	c #020000",
")+	c #410700",
"!+	c #E61800",
"~+	c #BA1300",
"{+	c #530900",
"]+	c #170200",
"^+	c #750C00",
"/+	c #EB1900",
"(+	c #EE1900",
"_+	c #490700",
":+	c #870F00",
"<+	c #1A0300",
"[+	c #006699",
"}+	c #A41200",
"|+	c #E71900",
"1+	c #D81700",
"2+	c #1F0300",
"3+	c #3D0600",
"4+	c #A31100",
"5+	c #E91800",
"6+	c #840D00",
"7+	c #460700",
"8+	c #000406",
"9+	c #131219",
"0+	c #650A00",
"a+	c #001018",
"b+	c #000D13",
"c+	c #000A0E",
"d+	c #006090",
"                      . . . .                                   ",
"                  . . + @ # $ % . . . . & .                     ",
"              . . * = - ; > , ' ) ! ~ { ] ^ /                   ",
"            . . ( _ : < [ [ } | 1 2 3 4 5 6 .                   ",
"          . . 7 8 9 0 a / b c d e f g h i . .                   ",
"      . . . . j k - l m n o p q r s t u v w x * .               ",
"    . . . . . y z A A A B C D . 2 E F G H I J K L f .           ",
"        . . . M ; N N A O P Q R S T M U V W X A 9 Y Z ` . .     ",
"      . . . .  .; N ..+.@.#.$.%...&.*.=.-.9 A N N ; ; ..;.$ .   ",
"    . . . >.,.'.o ; ).!.9 N N N ; ~.{.].y ^.o ; N N N A : e .   ",
"  .   . . * ..$./.; (._.; N N N ; ~ :.<.. . [.}.; ; N A |.1.2.. ",
"    . . . . 3.; N ; ^.. 4.; N N ; 5.. . . . 6.7.8.9.N A 9 0.a.. ",
"        . . b.c.A ; d.e.f.g.9 A N h.i.j.k.l.m.n.o.p.q.r.s.9.t.. ",
"      . . . . 2 ; A u.] v.w.x.p ; A A (.y.z.A.B.C.o.o.D.E.F.f   ",
"    .   . . . >.G.N A H.I.; J.K.L.A A M.N.^.O.P.Q.R.S.T.U.V..   ",
"        . . . W.X.A N A N A Y.Z.`. +Z.6 . . . .+++@+#+$+.       ",
"          . . %+: $.N N N N ; &+*+. . .         . . .           ",
"          . . =+-+' A N N A ;+>+,+'+.                           ",
"          . `.)+1 $.N N A !+~+< {+.                             ",
"          . ]+^+/+A N N N (+_+:+<+                              ",
"        [+[+. .+}+; ; A N |+1+2+.                 [+[+  [+[+    ",
"      [+[+      . 3+4+5+: Y 6+7+.                 [+[+    [+[+  ",
"      [+[+          8+9+t.0+f a+b+                [+[+    [+[+  ",
"    [+[+[+    [+[+[+[+[+[+c+d+[+[+[+      [+[+[+[+[+[+    [+[+[+",
"    [+[+      [+[+[+[+[+[+[+[+[+[+[+    [+[+[+[+[+[+[+      [+[+",
"    [+[+      [+[+    [+[+[+    [+[+    [+[+      [+[+      [+[+",
"    [+[+      [+[+    [+[+[+    [+[+  [+[+[+      [+[+      [+[+",
"    [+[+      [+[+    [+[+[+    [+[+    [+[+      [+[+      [+[+",
"    [+[+[+    [+[+    [+[+[+    [+[+    [+[+[+[+[+[+[+    [+[+[+",
"      [+[+    [+[+    [+[+[+    [+[+      [+[+[+[+[+[+    [+[+  ",
"      [+[+[+                                            [+[+[+  ",
"        [+                                                [+    "};
